<?xml version="1.0" standalone="no"?>
<!DOCTYPE svg PUBLIC "-//W3C//DTD SVG 20010904//EN"
 "http://www.w3.org/TR/2001/REC-SVG-20010904/DTD/svg10.dtd">
<svg version="1.0" xmlns="http://www.w3.org/2000/svg"
 width="367.000000pt" height="367.000000pt" viewBox="0 0 367.000000 367.000000"
 preserveAspectRatio="xMidYMid meet">
<metadata>
Created by potrace 1.14, written by Peter Selinger 2001-2017
</metadata>
<g transform="translate(0.000000,367.000000) scale(0.100000,-0.100000)"
fill="#000000" stroke="none">
<path d="M1679 3666 c-2 -2 -33 -7 -69 -10 -244 -26 -550 -136 -765 -276 -287
-187 -517 -447 -660 -744 -63 -132 -85 -191 -119 -317 -52 -189 -61 -267 -60
-504 1 -143 5 -206 24 -305 135 -736 697 -1315 1425 -1469 143 -30 152 -31
340 -35 258 -6 410 17 655 101 41 14 122 48 180 75 452 216 798 616 956 1103
15 47 55 220 60 260 4 28 10 73 14 100 12 77 9 309 -5 415 -19 140 -24 162
-55 274 -83 295 -234 556 -449 775 -127 129 -167 162 -291 246 -210 140 -456
243 -670 280 -19 4 -60 11 -90 17 -53 9 -413 22 -421 14z m385 -100 c113 -15
270 -55 393 -100 112 -41 365 -179 417 -228 8 -7 29 -24 47 -38 18 -14 55 -45
82 -70 308 -279 498 -639 561 -1060 13 -90 15 -405 3 -455 -3 -11 -8 -42 -11
-69 -26 -187 -127 -455 -242 -636 -250 -394 -642 -673 -1084 -774 -160 -37
-240 -44 -420 -41 -165 3 -196 6 -300 26 -160 31 -367 103 -488 170 -32 18
-66 37 -77 43 -28 16 -138 88 -151 101 -7 5 -24 19 -38 29 -64 46 -203 183
-271 266 -181 223 -319 516 -364 776 -5 33 -13 75 -16 94 -11 60 -14 372 -4
435 5 33 11 74 14 90 28 177 80 335 167 503 139 271 352 508 600 669 70 45
258 146 258 137 0 -2 10 2 23 10 57 37 294 101 447 121 91 12 368 13 454 1z"/>
<path d="M2116 3352 c-4 -4 -45 -9 -121 -17 -27 -3 -70 -7 -95 -10 -25 -3 -67
-7 -95 -10 -143 -14 -264 -61 -375 -144 -29 -22 -58 -47 -63 -56 -4 -8 -12
-15 -17 -15 -14 0 -12 54 2 68 25 25 -4 23 -38 -3 -30 -23 -72 -92 -80 -130
-1 -5 -4 -24 -7 -42 -7 -46 -14 -53 -50 -51 -63 2 -78 -2 -103 -27 -28 -28
-26 -43 7 -40 25 2 59 -23 59 -42 0 -7 -5 -13 -11 -13 -16 0 -94 -81 -113
-118 -22 -42 -45 -113 -49 -149 -2 -16 -6 -33 -8 -38 -8 -14 -3 -263 5 -312 4
-23 20 -82 36 -132 19 -61 24 -91 16 -91 -6 0 -20 -15 -31 -32 -16 -27 -19
-50 -17 -133 1 -55 3 -107 5 -115 2 -8 7 -37 12 -65 4 -27 17 -69 27 -92 19
-40 32 -48 66 -44 6 1 13 -2 13 -6 1 -4 3 -17 4 -28 16 -106 105 -301 170
-371 5 -7 26 -31 45 -54 53 -66 142 -148 205 -188 147 -95 296 -134 410 -107
17 4 40 7 53 8 12 1 22 5 22 9 0 4 3 7 8 6 17 -3 162 67 215 105 80 57 167
133 188 164 8 13 19 20 22 16 4 -3 7 1 7 10 0 10 4 17 9 17 20 0 132 206 146
269 5 22 12 31 26 31 36 0 60 21 82 68 11 26 22 52 23 57 1 6 10 37 19 70 21
69 24 88 32 167 4 48 2 62 -17 88 -18 25 -20 36 -12 59 6 16 8 32 5 35 -4 3 0
6 7 6 7 0 11 3 8 6 -3 3 5 33 19 67 13 34 26 70 28 80 2 9 6 20 9 25 7 11 18
137 17 190 -1 56 -9 133 -17 170 -3 15 -8 41 -11 57 -3 17 -9 35 -13 40 -4 6
-11 26 -15 45 -7 32 -43 118 -55 130 -3 3 -21 30 -41 61 -28 41 -34 60 -27 72
7 13 5 17 -6 17 -27 0 -83 75 -78 103 1 4 -2 7 -7 7 -5 0 -12 14 -16 30 -4 17
-11 30 -16 30 -5 0 -9 6 -9 14 0 21 -73 125 -122 174 -43 44 -94 72 -129 72
-11 0 -19 -4 -19 -10 0 -15 -62 -75 -90 -87 -33 -13 -55 -6 -39 13 6 8 9 14 5
14 -4 0 3 18 14 40 27 52 25 66 -5 66 -14 0 -27 -2 -29 -4z"/>
</g>
</svg>
